<svg data-v-423bf9ae="" xmlns="http://www.w3.org/2000/svg" viewBox="0 0 773 90" class="iconLeft"><!----><!----><!----><g data-v-423bf9ae="" id="4d79f368-aaa6-4e53-9cd9-8b1cd7390e87" fill="#000000" transform="matrix(6.036216979508284,0,0,6.036216979508284,156.62225020203647,-10.291749012697657)"><path d="M10.50 10.08L8.93 10.08C8.58 11.63 7.28 12.73 5.56 12.73C3.54 12.73 2.09 11.21 2.09 9.14C2.09 7.07 3.54 5.59 5.56 5.59C7.29 5.59 8.58 6.66 8.93 8.20L10.50 8.20C10.12 5.82 8.16 4.19 5.56 4.19C2.65 4.19 0.53 6.27 0.53 9.14C0.53 12.04 2.65 14.13 5.56 14.13C8.16 14.13 10.14 12.47 10.50 10.08ZM15.57 7.11L14.01 7.11L14.01 5.33L12.57 5.33L12.57 7.11L11.30 7.11L11.30 8.32L12.57 8.32L12.57 14L14.01 14L14.01 8.32L15.57 8.32ZM18.10 8.72L18.10 7.11L16.67 7.11L16.67 14L18.10 14L18.10 10.60C18.10 9.18 19.10 8.34 20.69 8.34L20.69 6.93C19.47 6.93 18.56 7.59 18.10 8.72ZM21.69 4.31L21.69 14L23.11 14L23.11 4.31ZM30.27 9.23L27.93 9.23L27.93 6.99L26.99 6.99L26.99 9.23L24.67 9.23L24.67 10.09L26.99 10.09L26.99 12.33L27.93 12.33L27.93 10.09L30.27 10.09ZM38.44 14L40.10 14L36.33 4.31L34.48 4.31L30.73 14L32.37 14L33.14 11.91L37.67 11.91ZM33.60 10.65L35.41 5.80L37.21 10.65ZM41.08 4.31L41.08 14L42.50 14L42.50 4.31ZM47.92 7.11L46.37 7.11L46.37 5.33L44.93 5.33L44.93 7.11L43.65 7.11L43.65 8.32L44.93 8.32L44.93 14L46.37 14L46.37 8.32L47.92 8.32ZM54.14 9.23L51.80 9.23L51.80 6.99L50.86 6.99L50.86 9.23L48.54 9.23L48.54 10.09L50.86 10.09L50.86 12.33L51.80 12.33L51.80 10.09L54.14 10.09ZM57.34 12.64L57.34 4.31L55.82 4.31L55.82 14L62.13 14L62.13 12.64ZM68.40 7.11L68.40 8.11C67.80 7.41 66.92 6.99 65.90 6.99C63.95 6.99 62.52 8.48 62.52 10.56C62.52 12.63 63.95 14.13 65.90 14.13C66.92 14.13 67.80 13.71 68.40 13.01L68.40 14L69.83 14L69.83 7.11ZM66.19 12.88C64.92 12.88 63.99 11.91 63.99 10.56C63.99 9.21 64.92 8.23 66.19 8.23C67.48 8.23 68.40 9.21 68.40 10.56C68.40 11.91 67.48 12.88 66.19 12.88ZM77.81 7.11L76.38 7.11L76.38 11.16C76.38 12.24 75.70 12.94 74.66 12.94C73.63 12.94 72.95 12.24 72.95 11.16L72.95 7.11L71.53 7.11L71.53 11.16C71.53 12.92 72.80 14.13 74.68 14.13C76.54 14.13 77.81 12.92 77.81 11.16ZM83.10 6.99C82.15 6.99 81.38 7.41 80.93 8.15L80.93 7.11L79.51 7.11L79.51 14L80.93 14L80.93 9.97C80.93 8.86 81.62 8.13 82.68 8.13C83.72 8.13 84.39 8.86 84.39 9.97L84.39 14L85.83 14L85.83 9.77C85.83 8.11 84.69 6.99 83.10 6.99ZM94.37 11.14L92.93 11.14C92.72 12.15 91.87 12.88 90.79 12.88C89.50 12.88 88.58 11.91 88.58 10.56C88.58 9.21 89.50 8.23 90.79 8.23C91.85 8.23 92.72 8.97 92.92 9.97L94.37 9.97C94.16 8.25 92.67 6.99 90.79 6.99C88.66 6.99 87.11 8.48 87.11 10.56C87.11 12.63 88.66 14.13 90.79 14.13C92.67 14.13 94.16 12.88 94.37 11.14ZM99.30 6.99C98.35 6.99 97.58 7.41 97.13 8.15L97.13 4.31L95.70 4.31L95.70 14L97.13 14L97.13 9.97C97.13 8.86 97.82 8.13 98.88 8.13C99.92 8.13 100.59 8.86 100.59 9.97L100.59 14L102.03 14L102.03 9.77C102.03 8.11 100.88 6.99 99.30 6.99Z"></path></g><!----><g data-v-423bf9ae="" id="d234a20a-c65d-45e6-98d9-a67a696ddcac" transform="matrix(1.6071428571428572,0,0,1.6071428571428572,-11.160714285714292,-25.714285714285722)" stroke="none" fill="#0B0B0B"><switch><g><path d="M57 37.964A3.035 3.035 0 0 1 53.964 41H35.036A3.036 3.036 0 0 1 32 37.964V19.036A3.036 3.036 0 0 1 35.036 16h18.928A3.035 3.035 0 0 1 57 19.036v18.928zM63 68.965A3.035 3.035 0 0 1 59.964 72H41.036A3.035 3.035 0 0 1 38 68.965V50.036A3.036 3.036 0 0 1 41.036 47h18.928A3.035 3.035 0 0 1 63 50.036v18.929zM32 68.965A3.035 3.035 0 0 1 28.964 72H10.036A3.035 3.035 0 0 1 7 68.965V50.036A3.036 3.036 0 0 1 10.036 47h18.928A3.035 3.035 0 0 1 32 50.036v18.929zM94 68.965A3.035 3.035 0 0 1 90.964 72H72.035A3.035 3.035 0 0 1 69 68.965V50.036A3.035 3.035 0 0 1 72.035 47h18.929A3.035 3.035 0 0 1 94 50.036v18.929z"></path></g></switch></g><!----></svg>